<svg xmlns="http://www.w3.org/2000/svg" viewBox="0 0 64.11 44.59"><defs><style>.a{fill:#f39200;}</style></defs><path class="a" d="M63.63,8.88c1.12-3.21-.65-5.76-5.12-7.29s-17.78-.35-20.1,4.8-2.87,11.66-3,14.61c-.43,7.52,1.45,16.84,6.08,20.81C46.37,46,57.08,45.15,61.9,40.64s.7-7.34-2.34-7.7-6.31,2.34-10.21.86c-2.51-.95-4.76-4.33-5.17-8.48-.64-6.41,0-9,1.45-11.79,2-3.87,6.21-3.89,8.56-3C58.37,12.16,62.93,10.89,63.63,8.88Z"/><path class="a" d="M29.7,29.21c-8.23-6.45-7.28,0,1-9S28,2.43,22.72,1.55,4.19.77,1.69,7C-.5,12.34.06,34.58.08,40.57A3.81,3.81,0,0,0,3,44.12a16.92,16.92,0,0,0,7,.21c3.48-.63,3.52-10.88,4.89-15.58s4.08,12.08,6.28,15S31.44,40.69,35,37.71C37.46,35.63,32,31,29.7,29.21Zm-8-14.45a9.1,9.1,0,0,0-3.75.81,6.5,6.5,0,0,1-3,.72c-.58,0-.68-.3-.68-.88,0-2.1-.18-3.6.79-3.6.64,0,.89.84,3.69,1.31S22.09,14.72,21.67,14.76Z"/><path class="a" d="M39.92,4.57v-4A.59.59,0,0,1,40.51,0h.71a.58.58,0,0,1,.58.59V1a.59.59,0,0,0,.59.58h.45A.58.58,0,0,0,43.42,1V.59A.59.59,0,0,1,44,0h.3a.58.58,0,0,1,.58.59V1a.59.59,0,0,0,.59.58h.6A.58.58,0,0,0,46.66,1V.59A.58.58,0,0,1,47.25,0h.59a.58.58,0,0,1,.59.59V2.92a.59.59,0,0,1-.46.57L40.64,5.14A.59.59,0,0,1,39.92,4.57Z"/></svg>